<svg xmlns="http://www.w3.org/2000/svg" viewBox="0 0 32 32">
	<circle cx="16" cy="16" r="16" fill="#2563eb"/>
	<g>
		<circle cx="16" cy="16" r="5" fill="#fff"/>
		<!-- 16 thin rays -->
		<g stroke="#fff" stroke-width="0.7">
			<line x1="16" y1="4" x2="16" y2="10"/>
			<line x1="16" y1="22" x2="16" y2="28"/>
			<line x1="4" y1="16" x2="10" y2="16"/>
			<line x1="22" y1="16" x2="28" y2="16"/>
			<line x1="7.3" y1="7.3" x2="11.5" y2="11.5"/>
			<line x1="20.5" y1="20.5" x2="24.7" y2="24.7"/>
			<line x1="7.3" y1="24.7" x2="11.5" y2="20.5"/>
			<line x1="20.5" y1="11.5" x2="24.7" y2="7.3"/>
			<line x1="16" y1="4" x2="16" y2="8"/>
			<line x1="16" y1="24" x2="16" y2="28"/>
			<line x1="4" y1="16" x2="8" y2="16"/>
			<line x1="24" y1="16" x2="28" y2="16"/>
			<line x1="9.5" y1="6.5" x2="13" y2="13"/>
			<line x1="19" y1="19" x2="22.5" y2="22.5"/>
			<line x1="9.5" y1="22.5" x2="13" y2="19"/>
			<line x1="19" y1="13" x2="22.5" y2="6.5"/>
		</g>
	</g>
</svg>